<?xml version="1.0" encoding="UTF-8" standalone="no"?>
<svg
   xmlns:dc="http://purl.org/dc/elements/1.1/"
   xmlns:cc="http://creativecommons.org/ns#"
   xmlns:rdf="http://www.w3.org/1999/02/22-rdf-syntax-ns#"
   xmlns:svg="http://www.w3.org/2000/svg"
   xmlns="http://www.w3.org/2000/svg"
   id="svg4561"
   version="1.1"
   viewBox="0 0 4000.0004 917.07494"
   height="91.707497cm"
   width="400.00003cm">
  <defs
     id="defs4555" />
  <metadata
     id="metadata4558">
    <rdf:RDF>
      <cc:Work
         rdf:about="">
        <dc:format>image/svg+xml</dc:format>
        <dc:type
           rdf:resource="http://purl.org/dc/dcmitype/StillImage" />
        <dc:title></dc:title>
      </cc:Work>
    </rdf:RDF>
  </metadata>
  <g
     transform="translate(-17.108522,461.66918)"
     style="display:inline"
     id="layer3" />
  <g
     transform="translate(-17.108522,461.66918)"
     style="display:inline"
     id="layer4" />
  <g
     transform="translate(-17.108522,461.66918)"
     style="display:inline"
     id="layer5" />
  <g
     transform="translate(-17.108522,461.66918)"
     style="display:inline"
     id="layer6">
    <g
       id="text83"
       style="font-style:normal;font-weight:normal;font-size:260.1008606px;line-height:125%;font-family:Sans;letter-spacing:0px;word-spacing:0px;display:inline;fill:#0098ca;fill-opacity:1;stroke:none;stroke-width:4.33501339px;stroke-linecap:butt;stroke-linejoin:miter;stroke-opacity:1"
       transform="scale(1.3325445,0.75044396)"
       aria-label="www.videoispezioni.it">
      <path
         id="path258"
         style="font-style:italic;font-variant:normal;font-weight:bold;font-stretch:normal;font-size:260.1008606px;font-family:Arial;-inkscape-font-specification:'Arial, Bold Italic';font-variant-ligatures:normal;font-variant-caps:normal;font-variant-numeric:normal;font-feature-settings:normal;text-align:start;writing-mode:lr-tb;text-anchor:start;fill:#0098ca;fill-opacity:1;stroke-width:4.33501339px"
         d="m 327.10927,555.41254 h -34.29064 l -6.60412,-85.85361 -41.14877,85.85361 H 211.28311 L 194.39179,420.53602 h 32.38561 l 9.39817,90.42569 42.03779,-90.42569 h 33.14762 l 4.57208,90.42569 41.78378,-90.42569 h 36.57669 z" />
      <path
         id="path260"
         style="font-style:italic;font-variant:normal;font-weight:bold;font-stretch:normal;font-size:260.1008606px;font-family:Arial;-inkscape-font-specification:'Arial, Bold Italic';font-variant-ligatures:normal;font-variant-caps:normal;font-variant-numeric:normal;font-feature-settings:normal;text-align:start;writing-mode:lr-tb;text-anchor:start;fill:#0098ca;fill-opacity:1;stroke-width:4.33501339px"
         d="m 529.29705,555.41254 h -34.29064 l -6.60413,-85.85361 -41.14877,85.85361 H 413.47088 L 396.57957,420.53602 h 32.3856 l 9.39818,90.42569 42.03778,-90.42569 h 33.14762 l 4.57209,90.42569 41.78378,-90.42569 h 36.57668 z" />
      <path
         id="path262"
         style="font-style:italic;font-variant:normal;font-weight:bold;font-stretch:normal;font-size:260.1008606px;font-family:Arial;-inkscape-font-specification:'Arial, Bold Italic';font-variant-ligatures:normal;font-variant-caps:normal;font-variant-numeric:normal;font-feature-settings:normal;text-align:start;writing-mode:lr-tb;text-anchor:start;fill:#0098ca;fill-opacity:1;stroke-width:4.33501339px"
         d="m 731.48482,555.41254 h -34.29064 l -6.60412,-85.85361 -41.14877,85.85361 H 615.65866 L 598.76734,420.53602 h 32.38561 l 9.39817,90.42569 42.03779,-90.42569 h 33.14762 l 4.57208,90.42569 41.78378,-90.42569 h 36.57669 z" />
      <path
         id="path264"
         style="font-style:italic;font-variant:normal;font-weight:bold;font-stretch:normal;font-size:260.1008606px;font-family:Arial;-inkscape-font-specification:'Arial, Bold Italic';font-variant-ligatures:normal;font-variant-caps:normal;font-variant-numeric:normal;font-feature-settings:normal;text-align:start;writing-mode:lr-tb;text-anchor:start;fill:#0098ca;fill-opacity:1;stroke-width:4.33501339px"
         d="m 791.68396,520.23288 h 36.06867 l -7.36614,35.17966 h -36.06867 z" />
      <path
         id="path266"
         style="font-style:italic;font-variant:normal;font-weight:bold;font-stretch:normal;font-size:260.1008606px;font-family:Arial;-inkscape-font-specification:'Arial, Bold Italic';font-variant-ligatures:normal;font-variant-caps:normal;font-variant-numeric:normal;font-feature-settings:normal;text-align:start;writing-mode:lr-tb;text-anchor:start;fill:#0098ca;fill-opacity:1;stroke-width:4.33501339px"
         d="M 923.13142,555.41254 H 891.76183 L 864.71032,420.53602 h 35.81467 l 9.52518,58.80209 q 3.93708,23.87645 4.69909,31.7506 1.01602,-2.15904 8.76316,-16.38331 7.87415,-14.35127 9.65218,-17.27232 l 33.52863,-56.89706 h 39.37077 z" />
      <path
         id="path268"
         style="font-style:italic;font-variant:normal;font-weight:bold;font-stretch:normal;font-size:260.1008606px;font-family:Arial;-inkscape-font-specification:'Arial, Bold Italic';font-variant-ligatures:normal;font-variant-caps:normal;font-variant-numeric:normal;font-feature-settings:normal;text-align:start;writing-mode:lr-tb;text-anchor:start;fill:#0098ca;fill-opacity:1;stroke-width:4.33501339px"
         d="m 1039.3386,369.22706 h 36.4497 l -6.8582,33.02061 h -36.4496 z m -10.6682,51.30896 h 36.4497 l -28.1945,134.87652 h -36.4497 z" />
      <path
         id="path270"
         style="font-style:italic;font-variant:normal;font-weight:bold;font-stretch:normal;font-size:260.1008606px;font-family:Arial;-inkscape-font-specification:'Arial, Bold Italic';font-variant-ligatures:normal;font-variant-caps:normal;font-variant-numeric:normal;font-feature-settings:normal;text-align:start;writing-mode:lr-tb;text-anchor:start;fill:#0098ca;fill-opacity:1;stroke-width:4.33501339px"
         d="m 1197.2025,555.41254 h -34.5446 l 3.048,-14.60528 q -9.9061,9.52518 -19.5583,13.71626 -9.5252,4.06408 -21.5904,4.06408 -20.9554,0 -34.0367,-14.22427 -12.9542,-14.35127 -12.9542,-42.29179 0,-32.38561 18.2883,-58.54809 18.2884,-26.16249 48.3879,-26.16249 27.1785,0 40.7678,21.5904 l 14.6053,-69.7243 h 36.4497 z M 1113,500.54751 q 0,14.47827 7.2391,22.60642 7.3661,8.12816 18.0343,8.12816 9.9062,0 18.4154,-6.73113 8.6361,-6.85813 13.7162,-20.82839 5.2071,-13.97026 5.2071,-26.7975 0,-14.60527 -7.8741,-23.62244 -7.8742,-9.01717 -18.1614,-9.01717 -16.0023,0 -26.2895,17.78033 Q 1113,479.84612 1113,500.54751 Z" />
      <path
         id="path272"
         style="font-style:italic;font-variant:normal;font-weight:bold;font-stretch:normal;font-size:260.1008606px;font-family:Arial;-inkscape-font-specification:'Arial, Bold Italic';font-variant-ligatures:normal;font-variant-caps:normal;font-variant-numeric:normal;font-feature-settings:normal;text-align:start;writing-mode:lr-tb;text-anchor:start;fill:#0098ca;fill-opacity:1;stroke-width:4.33501339px"
         d="m 1362.9406,499.27749 h -91.4417 q -0.127,2.15904 -0.127,3.30206 0,13.46225 7.6201,21.71741 7.7472,8.25515 18.7964,8.25515 18.1613,0 28.3215,-18.79635 l 32.6396,5.4611 q -9.5251,19.68537 -25.5274,29.59155 -15.8753,9.77919 -35.6877,9.77919 -27.1785,0 -44.1968,-17.14532 -17.0184,-17.27233 -17.0184,-45.59386 0,-27.68651 15.3673,-49.27692 20.9554,-29.21054 59.8182,-29.21054 24.7654,0 39.3707,15.36728 14.6053,15.24029 14.6053,42.7998 0,13.20825 -2.5401,23.74945 z m -30.7346,-22.22542 q 0.127,-2.41304 0.127,-3.68307 0,-14.98628 -6.7311,-22.47942 -6.7311,-7.49314 -18.0343,-7.49314 -11.3032,0 -20.3204,8.50916 -8.8902,8.50916 -12.0652,25.14647 z" />
      <path
         id="path274"
         style="font-style:italic;font-variant:normal;font-weight:bold;font-stretch:normal;font-size:260.1008606px;font-family:Arial;-inkscape-font-specification:'Arial, Bold Italic';font-variant-ligatures:normal;font-variant-caps:normal;font-variant-numeric:normal;font-feature-settings:normal;text-align:start;writing-mode:lr-tb;text-anchor:start;fill:#0098ca;fill-opacity:1;stroke-width:4.33501339px"
         d="m 1381.737,499.40449 q 0,-37.4657 21.0824,-59.69112 21.2094,-22.35241 55.627,-22.35241 29.8456,0 46.6099,16.51031 16.7643,16.3833 16.7643,44.19682 0,32.76661 -20.9554,56.64306 -20.9554,23.87645 -56.1351,23.87645 -19.0503,0 -33.7826,-7.62015 -14.7323,-7.62014 -21.9714,-21.5904 -7.2391,-13.97026 -7.2391,-29.97256 z M 1485.6249,473.369 q 0,-12.95424 -7.6201,-20.70138 -7.4932,-7.87415 -19.4314,-7.87415 -11.8112,0 -20.9554,7.36614 -9.1442,7.23913 -14.2242,21.20939 -5.0801,13.84326 -5.0801,25.52748 0,14.47827 7.8741,22.98743 7.8742,8.50916 19.8124,8.50916 14.9863,0 25.1464,-12.82724 14.4783,-18.16134 14.4783,-44.19683 z" />
      <path
         id="path276"
         style="font-style:italic;font-variant:normal;font-weight:bold;font-stretch:normal;font-size:260.1008606px;font-family:Arial;-inkscape-font-specification:'Arial, Bold Italic';font-variant-ligatures:normal;font-variant-caps:normal;font-variant-numeric:normal;font-feature-settings:normal;text-align:start;writing-mode:lr-tb;text-anchor:start;fill:#0098ca;fill-opacity:1;stroke-width:4.33501339px"
         d="m 1574.2726,369.22706 h 36.4496 l -6.8581,33.02061 h -36.4497 z m -10.6682,51.30896 h 36.4496 l -28.1945,134.87652 h -36.4497 z" />
      <path
         id="path278"
         style="font-style:italic;font-variant:normal;font-weight:bold;font-stretch:normal;font-size:260.1008606px;font-family:Arial;-inkscape-font-specification:'Arial, Bold Italic';font-variant-ligatures:normal;font-variant-caps:normal;font-variant-numeric:normal;font-feature-settings:normal;text-align:start;writing-mode:lr-tb;text-anchor:start;fill:#0098ca;fill-opacity:1;stroke-width:4.33501339px"
         d="m 1602.8481,517.69283 35.3066,-5.5881 q 4.6991,11.17621 11.6843,15.87529 6.9851,4.57209 19.0503,4.57209 12.4462,0 19.9394,-5.58811 5.2071,-3.81007 5.2071,-9.27117 0,-3.68307 -2.6671,-6.60412 -2.794,-2.79405 -15.1133,-6.85813 -33.0206,-10.9222 -40.8947,-17.27232 -12.3193,-9.90619 -12.3193,-25.90849 0,-16.0023 11.9383,-27.55951 16.6373,-16.1293 49.4039,-16.1293 26.0355,0 39.3707,9.52517 13.3353,9.52518 16.8913,25.78149 l -33.6556,5.84211 q -2.667,-7.36614 -8.6361,-11.04921 -8.1282,-4.95309 -19.5584,-4.95309 -11.4302,0 -16.5103,3.81007 -4.9531,3.81007 -4.9531,8.76316 0,5.0801 5.0801,8.38216 3.175,2.03204 20.4474,7.11213 26.6705,7.74715 35.6876,15.24029 12.7003,10.54119 12.7003,25.40047 0,19.17736 -16.1293,33.27462 -16.1293,14.09727 -45.4669,14.09727 -29.2105,0 -45.2128,-10.6682 -15.8753,-10.79521 -21.5904,-30.22657 z" />
      <path
         id="path280"
         style="font-style:italic;font-variant:normal;font-weight:bold;font-stretch:normal;font-size:260.1008606px;font-family:Arial;-inkscape-font-specification:'Arial, Bold Italic';font-variant-ligatures:normal;font-variant-caps:normal;font-variant-numeric:normal;font-feature-settings:normal;text-align:start;writing-mode:lr-tb;text-anchor:start;fill:#0098ca;fill-opacity:1;stroke-width:4.33501339px"
         d="m 1779.3814,420.53602 h 34.5446 l -2.921,13.84325 q 11.0492,-9.14417 20.7014,-13.08124 9.6521,-3.93707 20.7013,-3.93707 21.2094,0 34.0367,14.60527 12.9542,14.60527 12.9542,43.56181 0,36.44968 -22.2254,61.59615 -19.0503,21.46341 -45.0858,21.46341 -26.7975,0 -40.5138,-21.71741 l -14.6053,69.97831 h -36.4496 z m 21.9714,77.34444 q 0,15.7483 7.6201,24.51146 7.7472,8.63616 18.1614,8.63616 9.0171,0 17.3993,-6.47712 8.3822,-6.60412 13.8433,-21.71741 5.5881,-15.24028 5.5881,-28.19452 0,-15.11329 -7.2392,-23.11443 -7.2391,-8.12816 -18.4153,-8.12816 -10.4142,0 -19.0504,7.49314 -8.5091,7.36614 -13.2082,21.84441 -4.6991,14.35127 -4.6991,25.14647 z" />
      <path
         id="path282"
         style="font-style:italic;font-variant:normal;font-weight:bold;font-stretch:normal;font-size:260.1008606px;font-family:Arial;-inkscape-font-specification:'Arial, Bold Italic';font-variant-ligatures:normal;font-variant-caps:normal;font-variant-numeric:normal;font-feature-settings:normal;text-align:start;writing-mode:lr-tb;text-anchor:start;fill:#0098ca;fill-opacity:1;stroke-width:4.33501339px"
         d="m 2042.6573,499.27749 h -91.4417 q -0.127,2.15904 -0.127,3.30206 0,13.46225 7.6201,21.71741 7.7472,8.25515 18.7964,8.25515 18.1613,0 28.3215,-18.79635 l 32.6396,5.4611 q -9.5252,19.68537 -25.5275,29.59155 -15.8753,9.77919 -35.6876,9.77919 -27.1785,0 -44.1969,-17.14532 -17.0183,-17.27233 -17.0183,-45.59386 0,-27.68651 15.3673,-49.27692 20.9554,-29.21054 59.8181,-29.21054 24.7655,0 39.3708,15.36728 14.6052,15.24029 14.6052,42.7998 0,13.20825 -2.54,23.74945 z m -30.7346,-22.22542 q 0.127,-2.41304 0.127,-3.68307 0,-14.98628 -6.7311,-22.47942 -6.7311,-7.49314 -18.0343,-7.49314 -11.3033,0 -20.3204,8.50916 -8.8902,8.50916 -12.0653,25.14647 z" />
      <path
         id="path284"
         style="font-style:italic;font-variant:normal;font-weight:bold;font-stretch:normal;font-size:260.1008606px;font-family:Arial;-inkscape-font-specification:'Arial, Bold Italic';font-variant-ligatures:normal;font-variant-caps:normal;font-variant-numeric:normal;font-feature-settings:normal;text-align:start;writing-mode:lr-tb;text-anchor:start;fill:#0098ca;fill-opacity:1;stroke-width:4.33501339px"
         d="m 2050.0234,555.41254 5.2071,-24.63846 73.9154,-81.78953 h -60.3261 l 5.9691,-28.44853 h 105.793 l -4.4451,21.7174 -74.5504,83.69457 h 64.8982 l -6.2231,29.46455 z" />
      <path
         id="path286"
         style="font-style:italic;font-variant:normal;font-weight:bold;font-stretch:normal;font-size:260.1008606px;font-family:Arial;-inkscape-font-specification:'Arial, Bold Italic';font-variant-ligatures:normal;font-variant-caps:normal;font-variant-numeric:normal;font-feature-settings:normal;text-align:start;writing-mode:lr-tb;text-anchor:start;fill:#0098ca;fill-opacity:1;stroke-width:4.33501339px"
         d="m 2225.0327,369.22706 h 36.4497 l -6.8582,33.02061 h -36.4496 z m -10.6682,51.30896 h 36.4497 l -28.1946,134.87652 H 2186.17 Z" />
      <path
         id="path288"
         style="font-style:italic;font-variant:normal;font-weight:bold;font-stretch:normal;font-size:260.1008606px;font-family:Arial;-inkscape-font-specification:'Arial, Bold Italic';font-variant-ligatures:normal;font-variant-caps:normal;font-variant-numeric:normal;font-feature-settings:normal;text-align:start;writing-mode:lr-tb;text-anchor:start;fill:#0098ca;fill-opacity:1;stroke-width:4.33501339px"
         d="m 2263.6414,499.40449 q 0,-37.4657 21.0824,-59.69112 21.2094,-22.35241 55.627,-22.35241 29.8456,0 46.6099,16.51031 16.7643,16.3833 16.7643,44.19682 0,32.76661 -20.9554,56.64306 -20.9554,23.87645 -56.135,23.87645 -19.0504,0 -33.7827,-7.62015 -14.7322,-7.62014 -21.9714,-21.5904 -7.2391,-13.97026 -7.2391,-29.97256 z M 2367.5293,473.369 q 0,-12.95424 -7.6201,-20.70138 -7.4931,-7.87415 -19.4314,-7.87415 -11.8112,0 -20.9554,7.36614 -9.1441,7.23913 -14.2242,21.20939 -5.0801,13.84326 -5.0801,25.52748 0,14.47827 7.8741,22.98743 7.8742,8.50916 19.8124,8.50916 14.9863,0 25.1465,-12.82724 14.4782,-18.16134 14.4782,-44.19683 z" />
      <path
         id="path290"
         style="font-style:italic;font-variant:normal;font-weight:bold;font-stretch:normal;font-size:260.1008606px;font-family:Arial;-inkscape-font-specification:'Arial, Bold Italic';font-variant-ligatures:normal;font-variant-caps:normal;font-variant-numeric:normal;font-feature-settings:normal;text-align:start;writing-mode:lr-tb;text-anchor:start;fill:#0098ca;fill-opacity:1;stroke-width:4.33501339px"
         d="m 2446.0169,420.53602 h 34.5447 l -3.5561,17.52632 q 12.9542,-11.17621 24.1304,-15.87529 11.3032,-4.82609 23.7495,-4.82609 16.6373,0 26.1625,9.52517 9.6522,9.52518 9.6522,25.27348 0,7.11213 -4.1911,26.9245 l -15.8753,76.32843 h -36.4497 l 16.0023,-76.58243 q 3.5561,-17.14532 3.5561,-20.44739 0,-6.98513 -4.1911,-10.9222 -4.0641,-4.06408 -11.4302,-4.06408 -8.0012,0 -17.7804,6.73113 -9.7791,6.73112 -15.3673,17.78033 -4.064,7.87415 -9.1441,32.1316 l -11.5572,55.37304 h -36.4497 z" />
      <path
         id="path292"
         style="font-style:italic;font-variant:normal;font-weight:bold;font-stretch:normal;font-size:260.1008606px;font-family:Arial;-inkscape-font-specification:'Arial, Bold Italic';font-variant-ligatures:normal;font-variant-caps:normal;font-variant-numeric:normal;font-feature-settings:normal;text-align:start;writing-mode:lr-tb;text-anchor:start;fill:#0098ca;fill-opacity:1;stroke-width:4.33501339px"
         d="m 2615.1839,369.22706 h 36.4497 l -6.8581,33.02061 h -36.4497 z m -10.6682,51.30896 h 36.4497 l -28.1945,134.87652 h -36.4497 z" />
      <path
         id="path294"
         style="font-style:italic;font-variant:normal;font-weight:bold;font-stretch:normal;font-size:260.1008606px;font-family:Arial;-inkscape-font-specification:'Arial, Bold Italic';font-variant-ligatures:normal;font-variant-caps:normal;font-variant-numeric:normal;font-feature-settings:normal;text-align:start;writing-mode:lr-tb;text-anchor:start;fill:#0098ca;fill-opacity:1;stroke-width:4.33501339px"
         d="m 2656.8408,520.23288 h 36.0687 l -7.3661,35.17966 h -36.0687 z" />
      <path
         id="path296"
         style="font-style:italic;font-variant:normal;font-weight:bold;font-stretch:normal;font-size:260.1008606px;font-family:Arial;-inkscape-font-specification:'Arial, Bold Italic';font-variant-ligatures:normal;font-variant-caps:normal;font-variant-numeric:normal;font-feature-settings:normal;text-align:start;writing-mode:lr-tb;text-anchor:start;fill:#0098ca;fill-opacity:1;stroke-width:4.33501339px"
         d="m 2759.4586,369.22706 h 36.4497 l -6.8582,33.02061 h -36.4496 z m -10.6682,51.30896 h 36.4497 l -28.1946,134.87652 h -36.4496 z" />
      <path
         id="path298"
         style="font-style:italic;font-variant:normal;font-weight:bold;font-stretch:normal;font-size:260.1008606px;font-family:Arial;-inkscape-font-specification:'Arial, Bold Italic';font-variant-ligatures:normal;font-variant-caps:normal;font-variant-numeric:normal;font-feature-settings:normal;text-align:start;writing-mode:lr-tb;text-anchor:start;fill:#0098ca;fill-opacity:1;stroke-width:4.33501339px"
         d="m 2801.8775,447.58752 5.5881,-27.0515 h 17.7803 l 4.4451,-21.59041 41.7838,-25.14647 -9.7792,46.73688 h 22.2254 l -5.5881,27.0515 h -22.3524 l -11.8112,56.51606 q -3.1751,15.36728 -3.1751,17.52633 0,4.19107 2.6671,6.60412 2.667,2.28604 9.6521,2.28604 2.4131,0 12.0653,-0.88902 l -5.7151,27.05151 q -9.3982,1.90504 -19.3044,1.90504 -19.3044,0 -28.0675,-7.36614 -8.7632,-7.49314 -8.7632,-20.70139 0,-6.22311 4.6991,-28.70253 l 11.3032,-54.23002 z" />
    </g>
    <path
       id="path5216"
       d="M 377.92744,-461.66918 A 360.82021,357.93152 0 0 0 17.108522,-103.7364 360.82021,357.93152 0 0 0 377.92744,254.19641 360.82021,357.93152 0 0 0 484.42572,237.8609 h -15.42245 l 147.32392,-609.8606 a 360.82021,357.93152 0 0 0 -238.39975,-89.66948 z m 238.39975,89.66948 a 360.82021,357.93152 0 0 1 122.4192,268.2633 360.82021,357.93152 0 0 1 -254.32067,341.5973 H 801.00286 L 931.50325,-249.58573 V 237.8609 h 185.42085 l 236.2167,-487.44663 -116.7991,487.44663 h 254.7982 l 154.7177,-683.1946 H 1265.5179 L 1083.1091,-96.117003 1100.641,-445.3337 H 634.04279 Z"
       style="display:inline;fill:#0069a0;fill-opacity:1;fill-rule:evenodd;stroke:none;stroke-width:2.68672609px;stroke-linecap:butt;stroke-linejoin:miter;stroke-opacity:1" />
    <path
       id="path5218"
       d="m 1717.4179,-445.33403 h 267.5277 l -147.6202,683.19609 h -274.6269 z"
       style="display:inline;fill:#0069a0;fill-opacity:1;fill-rule:evenodd;stroke:none;stroke-width:2.68672609px;stroke-linecap:butt;stroke-linejoin:miter;stroke-opacity:1" />
    <path
       id="path5267"
       d="m 1912.7511,237.86206 154.2468,-683.19609 h 262.5675 L 2214.6921,70.720605 h 205.1309 l -36.9235,167.141455 z"
       style="display:inline;fill:#0069a0;fill-opacity:1;fill-rule:evenodd;stroke:none;stroke-width:2.68672609px;stroke-linecap:butt;stroke-linejoin:miter;stroke-opacity:1" />
    <path
       id="path5273"
       d="m 2786.4306,-445.3337 -366.607,683.1946 h 278.9789 l 42.3946,-94.65986 h 165.4696 v 94.65986 h 259.8306 l -64.2713,-683.1946 z m 120.2361,217.92918 V 5.0760134 h -106.666 z"
       style="display:inline;fill:#0069a0;fill-opacity:1;fill-rule:evenodd;stroke:none;stroke-width:2.68672609px;stroke-linecap:butt;stroke-linejoin:miter;stroke-opacity:1" />
    <path
       id="path5301"
       d="m 3207.5256,237.86206 h 229.7465 l 84.7874,-351.7593 92.9927,351.7593 h 254.3623 c 0,0 -2e-4,10e-4 0,0 71.0342,-417.64958 147.6942,-683.19609 147.6942,-683.19609 h -227.0115 l -92.9927,366.992861 -82.0523,-366.992861 h -257.0975 z"
       style="display:inline;fill:#0069a0;fill-opacity:1;fill-rule:evenodd;stroke:none;stroke-width:2.68672609px;stroke-linecap:butt;stroke-linejoin:miter;stroke-opacity:1" />
    <ellipse
       ry="215.59268"
       rx="217.07753"
       cy="-103.73638"
       cx="246.06381"
       id="path5320"
       style="color:#000000;clip-rule:nonzero;display:inline;overflow:visible;visibility:visible;opacity:1;isolation:auto;mix-blend-mode:normal;color-interpolation:sRGB;color-interpolation-filters:linearRGB;solid-color:#000000;solid-opacity:1;fill:#0098ca;fill-opacity:1;fill-rule:evenodd;stroke:none;stroke-width:19.86286354;stroke-linecap:butt;stroke-linejoin:miter;stroke-miterlimit:4;stroke-dasharray:none;stroke-dashoffset:0;stroke-opacity:1;marker:none;color-rendering:auto;image-rendering:auto;shape-rendering:auto;text-rendering:auto;enable-background:accumulate" />
    <circle
       r="119.31603"
       cy="-103.73638"
       cx="148.30231"
       id="path5329"
       style="color:#000000;clip-rule:nonzero;display:inline;overflow:visible;visibility:visible;opacity:1;isolation:auto;mix-blend-mode:normal;color-interpolation:sRGB;color-interpolation-filters:linearRGB;solid-color:#000000;solid-opacity:1;fill:#a8d1e5;fill-opacity:1;fill-rule:evenodd;stroke:none;stroke-width:7.13297558;stroke-linecap:butt;stroke-linejoin:miter;stroke-miterlimit:4;stroke-dasharray:none;stroke-dashoffset:0;stroke-opacity:1;marker:none;color-rendering:auto;image-rendering:auto;shape-rendering:auto;text-rendering:auto;enable-background:accumulate" />
    <circle
       r="58.651848"
       cy="-103.73638"
       cx="87.638123"
       id="path5334"
       style="color:#000000;clip-rule:nonzero;display:inline;overflow:visible;visibility:visible;opacity:1;isolation:auto;mix-blend-mode:normal;color-interpolation:sRGB;color-interpolation-filters:linearRGB;solid-color:#000000;solid-opacity:1;fill:#ffffff;fill-opacity:1;fill-rule:evenodd;stroke:none;stroke-width:5.37345219;stroke-linecap:butt;stroke-linejoin:miter;stroke-miterlimit:4;stroke-dasharray:none;stroke-dashoffset:0;stroke-opacity:1;marker:none;color-rendering:auto;image-rendering:auto;shape-rendering:auto;text-rendering:auto;enable-background:accumulate" />
    <flowRoot
       style="font-style:normal;font-weight:normal;font-size:60px;line-height:125%;font-family:Sans;letter-spacing:0px;word-spacing:0px;fill:#000000;fill-opacity:1;stroke:none;stroke-width:1px;stroke-linecap:butt;stroke-linejoin:miter;stroke-opacity:1"
       id="flowRoot199"
       xml:space="preserve"><flowRegion
         id="flowRegion201"><rect
           y="4588.6704"
           x="1962.2213"
           height="61.871845"
           width="335.87573"
           id="rect203" /></flowRegion><flowPara
         id="flowPara205" /></flowRoot>  </g>
</svg>
